# Blender 4.1.0
# www.blender.org
mtllib cola_no_origen.mtl
o Plano
v -2.159586 2.395249 0.374177
v -2.176207 2.413846 0.587887
v -2.260489 2.613725 0.602069
v -2.244045 2.595242 0.388323
v -2.861963 2.534521 0.524026
v -2.868315 2.541689 0.607642
v -2.552418 2.399217 0.631749
v -2.535797 2.380620 0.418039
v -2.547408 2.588716 0.635172
v -2.530914 2.570199 0.421541
v -3.037038 2.703743 0.596245
v -2.866454 2.615985 0.609086
v -3.042121 2.693624 0.596649
v -2.859976 2.608737 0.525391
v -3.041131 2.692451 0.583065
v -3.035998 2.702537 0.582775
vn -0.9217 -0.3860 -0.0381
vn -0.9216 -0.3862 -0.0376
vn 0.4136 0.9093 -0.0465
vn 0.4137 0.9092 -0.0469
vn -0.0492 0.9947 -0.0904
vn 0.0973 -0.9909 0.0934
vn 0.0971 -0.9909 0.0932
vn -0.1170 0.0213 -0.9929
vn -0.1169 0.0213 -0.9929
vn -0.1166 0.0213 -0.9930
vn 0.1166 -0.0213 0.9929
vn 0.1168 -0.0209 0.9929
vn 0.0726 0.0056 -0.9973
vn 0.0725 0.0056 -0.9974
vn -0.0914 -0.9927 0.0789
vn -0.0913 -0.9927 0.0790
vn 0.0832 0.0158 -0.9964
vn 0.0833 0.0160 -0.9964
vn 0.2981 -0.0253 0.9542
vn 0.2981 -0.0255 0.9542
vn 0.8895 -0.4442 0.1073
vn 0.2888 -0.0350 0.9567
vn 0.2888 -0.0350 0.9568
vn 0.6586 0.7524 -0.0145
vn 0.6585 0.7524 -0.0145
vn -0.4594 -0.8873 0.0413
vn -0.4592 -0.8874 0.0416
vt 1.000000 0.000000
vt 1.000000 1.000000
vt 0.000000 1.000000
vt 0.000000 0.000000
s 0
usemtl Goddard_None
f 1/1/1 2/2/1 3/3/1
f 3/3/2 4/4/2 1/1/2
f 5/1/3 6/2/3 7/2/3
f 7/2/4 8/1/4 5/1/4
f 8/1/5 7/2/5 2/2/5
f 2/2/5 1/1/5 8/1/5
f 9/3/6 10/4/6 4/4/6
f 4/4/7 3/3/7 9/3/7
f 7/2/8 9/3/9 3/3/8
f 3/3/10 2/2/10 7/2/10
f 10/4/11 8/1/11 1/1/11
f 1/1/12 4/4/12 10/4/12
f 11/3/13 12/3/14 6/2/14
f 6/2/14 13/2/14 11/3/14
f 12/3/15 14/4/15 10/4/15
f 10/4/16 9/3/16 12/3/16
f 9/3/17 7/2/17 6/2/17
f 6/2/18 12/3/18 9/3/18
f 5/1/19 8/1/19 10/4/19
f 10/4/20 14/4/20 5/1/20
f 11/3/21 13/2/21 15/1/21
f 15/1/21 16/4/21 11/3/21
f 14/4/22 16/4/23 15/1/23
f 15/1/23 5/1/23 14/4/23
f 13/2/24 6/2/24 5/1/24
f 5/1/25 15/1/25 13/2/25
f 16/4/26 14/4/26 12/3/26
f 12/3/27 11/3/27 16/4/27
